<?xml version="1.0" encoding="UTF-8" standalone="no"?>
<!-- Created with Inkscape (http://www.inkscape.org/) -->

<svg
   xmlns:dc="http://purl.org/dc/elements/1.1/"
   xmlns:cc="http://creativecommons.org/ns#"
   xmlns:rdf="http://www.w3.org/1999/02/22-rdf-syntax-ns#"
   xmlns:svg="http://www.w3.org/2000/svg"
   xmlns="http://www.w3.org/2000/svg"
   xmlns:sodipodi="http://sodipodi.sourceforge.net/DTD/sodipodi-0.dtd"
   xmlns:inkscape="http://www.inkscape.org/namespaces/inkscape"
   id="svg2"
   version="1.1"
   inkscape:version="0.91 r13725"
   width="3840"
   height="2160"
   viewBox="0 0 3840 2160"
   sodipodi:docname="Powered_by_Manjaro_02.svg"
   inkscape:export-filename="/home/dad/Pictures/Powered_by_Manjaro_01.png"
   inkscape:export-xdpi="90"
   inkscape:export-ydpi="90">
  <metadata
     id="metadata8">
    <rdf:RDF>
      <cc:Work
         rdf:about="">
        <dc:format>image/svg+xml</dc:format>
        <dc:type
           rdf:resource="http://purl.org/dc/dcmitype/StillImage" />
        <dc:title></dc:title>
      </cc:Work>
    </rdf:RDF>
  </metadata>
  <defs
     id="defs6" />
  <sodipodi:namedview
     pagecolor="#ffffff"
     bordercolor="#666666"
     borderopacity="1"
     objecttolerance="10"
     gridtolerance="10"
     guidetolerance="10"
     inkscape:pageopacity="0"
     inkscape:pageshadow="2"
     inkscape:window-width="1600"
     inkscape:window-height="843"
     id="namedview4"
     showgrid="false"
     inkscape:zoom="0.28802083"
     inkscape:cx="1920"
     inkscape:cy="1080"
     inkscape:window-x="0"
     inkscape:window-y="33"
     inkscape:window-maximized="1"
     inkscape:current-layer="svg2"
     fit-margin-top="0"
     fit-margin-left="0"
     fit-margin-right="0"
     fit-margin-bottom="0" />
  <path
     inkscape:connector-curvature="0"
     id="path4142"
     d="m 1.5e-5,1080 0,-1079.999975 1919.999885,0 1920.0001,0 0,1079.999975 0,1080 -1920.0001,0 -1919.999885,0 0,-1080 z"
     style="fill:#1c2020;fill-opacity:1" />
  <path
     inkscape:connector-curvature="0"
     id="path4140"
     d="m 1.75e-4,1080 0,-1079.99999 1919.999925,0 1919.9997,0 0,1079.99999 0,1080 -1919.9997,0 -1919.999925,0 0,-1080 z M 2152.7999,1299.8058 c 0,-0.5467 -5.4947,-4.375 -12.2104,-8.5073 l -12.2105,-7.5131 1.3974,-11.2927 c 1.8714,-15.1244 10.2843,-111.0082 13.4148,-152.8927 4.7365,-63.3703 6.8026,-144.20801 4.7286,-184.99799 -1.1316,-22.25545 -1.575,-40.94699 -0.9851,-41.53683 4.4718,-4.47178 46.5849,35.73773 115.9772,110.73482 22.9004,24.75 42.5935,45 43.7625,45 3.4176,0 2.4732,-16.6897 -2.6359,-46.5745 -16.2225,-94.8909 -55.9302,-198.55487 -103.3164,-269.72537 -34.7981,-52.264 -69.1125,-90.71876 -131.621,-147.50201 -87.0597,-79.0856 -102.7108,-95.38212 -126.9892,-132.2264 -16.819,-25.52431 -28.1498,-49.86031 -30.7312,-66.00356 -3.096,-19.36093 -13.9676,-4.10025 -18.3118,25.70427 -2.1971,15.07517 -2.1819,25.36497 0.067,45.59543 5.2702,47.39488 16.3948,80.96481 51.4089,155.13213 56.2208,119.08773 69.4704,156.52894 80.2585,226.8 5.9019,38.44247 5.9097,124.85392 0.019,162.72901 -5.6402,36.2397 -14.8316,70.8263 -22.7472,85.596 -9.6365,17.9808 -17.161,21.0408 -48.4714,19.712 -28.8376,-1.2237 -48.5005,-6.569 -78.0001,-21.2039 -50.6621,-25.1341 -86.281,-65.8707 -100.4064,-114.83311 -12.4339,-43.09888 -13.6424,-77.07105 -6.1901,-174 3.3531,-43.61215 5.6235,-103.25202 6.9435,-182.4 1.4657,-87.88754 2.9393,-123.96649 5.8326,-142.79808 12.7539,-83.01887 32.8187,-123.94367 65.413,-133.41913 14.4795,-4.20926 24.8711,-3.33677 47.6878,4.00387 12.5956,4.05225 20.4035,4.57745 60.0002,4.03591 25.036,-0.34241 48.4901,0.20809 52.1201,1.22316 10.0425,2.80846 8.4117,-3.16431 -3.9834,-14.58991 -12.8034,-11.80158 -27.8596,-19.57962 -51.7876,-26.75316 -23.4142,-7.01952 -32.5689,-11.84786 -48.2839,-25.4655 C 1881.8649,263.56672 1867.6206,258 1841.9538,258 c -19.5761,0 -23.1686,0.74735 -37.4941,7.79983 -19.8618,9.77791 -33.7962,24.65658 -44.0477,47.03234 -16.9417,36.97832 -21.0367,74.86831 -18.8598,174.5045 l 1.6052,73.46995 -12.509,22.19 c -52.2705,92.72409 -90.4981,234.38333 -111.8646,414.53317 -3.4658,29.22141 -5.9311,57.30141 -5.4785,62.40001 0.8023,9.0375 1.151,8.5772 13.8844,-18.3298 16.9529,-35.823 36.6665,-74.06109 61.2471,-118.80001 10.8787,-19.8 25.3215,-47.07001 32.0953,-60.6 6.7737,-13.53001 12.9529,-24.6 13.7314,-24.6 0.7786,0 0.6496,24.02999 -0.2868,53.4 -2.5486,79.9331 3.4955,117.29061 26.6146,164.49921 20.1132,41.0705 68.076,84.3938 149.8772,135.3789 44.1989,27.5484 54.4864,34.6166 52.7314,36.2295 -0.6576,0.6043 -14.6955,-1.4067 -31.1956,-4.4688 -16.5001,-3.0621 -43.5001,-7.1829 -60,-9.1572 -71.4257,-8.5467 -72.2294,-6.7446 -3.6,8.0723 72.5019,15.653 160.5826,40.1722 249.5998,69.4817 27.71,9.1237 34.8,10.9105 34.8,8.7702 z M 1866.1363,313.86598 C 1858.4248,302.85631 1865.1621,288 1877.8663,288 c 6.8707,0 17.0943,8.533 19.2626,16.07724 3.7859,13.17245 -22.7518,21.55417 -30.9926,9.78874 z"
     style="fill:#d9d9d9;fill-opacity:1" />
  <text
     xml:space="preserve"
     style="font-style:normal;font-weight:normal;font-size:93.4263382px;line-height:125%;font-family:sans-serif;letter-spacing:0px;word-spacing:0px;fill:#35bf5c;fill-opacity:1;stroke:none;stroke-width:1px;stroke-linecap:butt;stroke-linejoin:miter;stroke-opacity:1"
     x="1541.7328"
     y="1483.8495"
     id="text4139"
     sodipodi:linespacing="125%"><tspan
       sodipodi:role="line"
       id="tspan4141"
       x="1541.7328"
       y="1483.8495"
       style="font-style:normal;font-variant:normal;font-weight:normal;font-stretch:normal;font-size:186.85267639px;font-family:Comfortaa;-inkscape-font-specification:Comfortaa;fill:#35bf5c;fill-opacity:1">manjaro</tspan></text>
  <text
     xml:space="preserve"
     style="font-style:normal;font-weight:normal;font-size:73.76773071px;line-height:125%;font-family:sans-serif;letter-spacing:0px;word-spacing:0px;fill:#1c2020;fill-opacity:1;stroke:none;stroke-width:1px;stroke-linecap:butt;stroke-linejoin:miter;stroke-opacity:1;"
     x="1460.8608"
     y="1335.5419"
     id="text4139-0"
     sodipodi:linespacing="125%"><tspan
       sodipodi:role="line"
       id="tspan4141-7"
       x="1460.8608"
       y="1335.5419"
       style="font-style:normal;font-variant:normal;font-weight:normal;font-stretch:normal;font-size:72px;font-family:Comfortaa;-inkscape-font-specification:Comfortaa;fill:#1c2020;fill-opacity:1;">Powered by</tspan></text>
</svg>
